<svg enable-background="new 0 0 515 515" viewBox="0 0 515 515" xmlns="http://www.w3.org/2000/svg"><path d="m218.3 221.1h-35.1c-1.9 0-3.5 1.6-3.5 3.5v105.6c0 1.9 1.6 3.5 3.5 3.5h35.1c1.9 0 3.5-1.6 3.5-3.5v-105.6c0-1.9-1.5-3.5-3.5-3.5z"/><path d="m200.6 213.7h.2c6.9 0 12.8-2.3 16.9-6.3 4.2-4.1 6.5-9.6 6.4-15.5v-.1c0-2.9-.6-5.8-1.7-8.5-1.6-4-4.5-7.3-8.1-9.6-4-2.4-8.6-3.7-13.3-3.6-6.8 0-12.7 2.3-16.8 6.2-4.2 4.1-6.6 9.7-6.5 15.6-.1 5.8 2.2 11.4 6.4 15.4 4.4 4.3 10.3 6.5 16.5 6.4z"/><path d="m234.3 323.1v5.3 1.9c0 1.9 1.5 3.5 3.5 3.5h35.1c1.9 0 3.5-1.6 3.5-3.5v-59c0-1.4.1-2.8.2-4.2.1-1 .3-2 .7-3 1.1-2.9 2.9-5.4 5.3-7.4 1.2-1 2.6-1.8 4.1-2.4 1.7-.6 3.5-.9 5.4-.9 2.3-.1 4.5.4 6.6 1.4 1.3.6 2.4 1.5 3.3 2.6 1.6 1.9 2.7 4.2 3.3 6.6.8 3.2 1.2 6.5 1.1 9.9v56.5c0 1.9 1.6 3.5 3.5 3.5h35.1c1.9 0 3.5-1.6 3.5-3.5v-60.6c.1-7.5-1-15-3.3-22.2-3.2-9.6-8.7-16.9-15.8-21.7s-15.7-7.1-24.9-7.1c-4.5 0-8.9.6-13.2 1.9-5.1 1.6-9.8 4.2-13.7 7.8-.4.4-.9.8-1.3 1.2v-4.9c0-1.9-1.6-3.5-3.5-3.5h-35.2c-1.9 0-3.5 1.6-3.5 3.5v.2c0 .7.1 2.1.1 4 .1 5.7.1 15.9.1 27.6 0 15.6-.1 34.1-.1 48.6.1 7.1.1 13.4.1 17.9z"/><path d="m257.5 465.8c115.2.1 208.6-93.1 208.8-208.3s-93.2-208.6-208.3-208.8-208.7 93.2-208.8 208.3c-.1 55.4 21.9 108.5 61.1 147.7 39 39.2 92 61.1 147.2 61.1zm0-395.7c103.6-.1 187.7 83.9 187.8 187.5s-83.9 187.7-187.5 187.8c-103.6 0-187.7-83.9-187.8-187.5 0-49.8 19.7-97.6 55-132.9 35.1-35.2 82.8-55 132.5-54.9z"/></svg>