<svg xmlns="http://www.w3.org/2000/svg" xml:space="preserve" viewBox="0 0 1024 1024"><path fill="#262626" d="M983.8 312.7A510.3 510.3 0 0 0 874 150 510.3 510.3 0 0 0 512 0a510.3 510.3 0 0 0-362 150A510.3 510.3 0 0 0 0 512a508.8 508.8 0 0 0 150 362 510.2 510.2 0 0 0 362 150 510.3 510.3 0 0 0 362-150 510.3 510.3 0 0 0 150-362c0-69-13.5-136.1-40.2-199.3zM512 976.3c-124 0-240.7-48.3-328.3-136A461.3 461.3 0 0 1 47.7 512C47.7 256 256 47.7 512 47.7c124 0 240.7 48.3 328.3 136a461.3 461.3 0 0 1 136 328.3c0 256-208.3 464.3-464.3 464.3z"/><g fill="#262626"><path d="M283.7 732.7H390l-.1-372.4H283.6zM756.6 460a167.8 167.8 0 0 0-13.3-43.1 93 93 0 0 0-38-42.1 110 110 0 0 0-24.5-10.8c-5-1.3-10-2.1-15.3-2.7a254.5 254.5 0 0 0-60.8 2.2c-4.4.7-8.8 1.6-13.1 2.6-7.6 2.4-14.3 6-20 11a62.5 62.5 0 0 0-20.3 35.8h-1.6l-.2-52.6H443.3v372.5H549V505.7c0-12.7 8.1-23.3 18.6-29.6 10.1-6.2 22.7-6.7 34.2-7.5 5.3-.3 10.7-.1 16 .4 9 1 18.3 3.8 25 10.2 11.4 10.6 13.2 26.8 13.2 41.5V732.8h104.6V512.6c0-17.6-1-35.4-4-52.7z"/><circle cx="336.8" cy="281.9" r="53.4"/></g></svg>
