<svg height="50" viewBox="0 0 50 50" width="50" xmlns="http://www.w3.org/2000/svg"><path d="m25 50c13.8071194 0 25-11.1928806 25-25s-11.1928806-25-25-25-25 11.1928806-25 25 11.1928806 25 25 25zm0-3c12.1502651 0 22-9.8497349 22-22s-9.8497349-22-22-22-22 9.8497349-22 22 9.8497349 22 22 22zm-.3177446-26.4457025.0476886.8218036-.7948107-.100629c-2.8931108-.3857446-5.4206087-1.6939217-7.5665975-3.8909884l-1.0491501-1.0901476-.2702356.805032c-.5722637 1.7945507-.2066508 3.6897304.9855652 4.9643645.6358485.7044031.4927826.8050321-.6040561.3857446-.3815091-.1341721-.7153296-.2348011-.7471221-.1844865-.1112734.1174005.2702357 1.6436071.5722637 2.2473812.4133016.8385751 1.2558009 1.6603786 2.1777812 2.1467522l.7789145.3857445-.9219804.0167715c-.8901879 0-.9219803.0167715-.826603.368973.3179243 1.0901477 1.5737251 2.2473813 2.9725919 2.7505263l.9855651.3522016-.8583955.536688c-1.271697.7714891-2.7659411 1.2075482-4.2601851 1.2410912-.7153296.0167714-1.3034895.0838574-1.3034895.134172 0 .1677149 1.939338 1.1069191 3.0679692 1.4758921 3.3858934 1.0901476 7.4076354.6205455 10.4279159-1.2410911 2.1459888-1.3249487 4.2919777-3.9580744 5.2934391-6.5073427.5404712-1.3584916 1.0809425-3.8406738 1.0809425-5.0314505 0-.771489.0476886-.872118.9378765-1.7945506.5245751-.5366881 1.0173577-1.1236906 1.112735-1.2914057.1589621-.3186585.143066-.3186585-.6676409-.033543-1.3511782.5031451-1.5419328.4360591-.8742918-.3186585.4927826-.5366881 1.0809425-1.5094351 1.0809425-1.7945507 0-.0503145-.2384432.0335431-.5086788.1844865-.2861319.1677151-.9219804.4192876-1.3988668.5702311l-.8583955.2851155-.7789145-.5534596c-.4291978-.301887-1.0332538-.637317-1.3511781-.737946-.8107069-.234801-2.0506115-.201258-2.7818374.067086-1.9870266.7547176-3.2428275 2.7002118-3.0997615 4.8301925 0 0-.143066-2.1299807 0 0zm0 0" fill-rule="evenodd"/></svg>