<svg xmlns="http://www.w3.org/2000/svg" xml:space="preserve" viewBox="0 0 1024 1024"><path fill="#262626" d="M983.8 312.7A510.3 510.3 0 0 0 874 150 510.3 510.3 0 0 0 512 0a510.3 510.3 0 0 0-362 150A510.3 510.3 0 0 0 0 512a508.8 508.8 0 0 0 150 362 510.2 510.2 0 0 0 362 150 510.3 510.3 0 0 0 362-150 510.3 510.3 0 0 0 150-362c0-69-13.5-136.1-40.2-199.3zM512 976.3c-124 0-240.7-48.3-328.3-136A461.3 461.3 0 0 1 47.7 512C47.7 256 256 47.7 512 47.7c124 0 240.7 48.3 328.3 136a461.3 461.3 0 0 1 136 328.3c0 256-208.3 464.3-464.3 464.3z"/><path fill="#262626" d="M743 348.5s52.7-44.3 51-64.1c0 0-60.8 26.7-74.1 27.9 0 0-4.3-4.3-11.2-9.9a108.7 108.7 0 0 0-33.2-19.7 120 120 0 0 0-70.3-7 122.1 122.1 0 0 0-87.3 63c-2.9 5.5-5.1 11.2-6.7 17.2a175 175 0 0 0-3.7 16.2c-2 11.7 0 49.6 0 49.6s-153.8 4.8-252.5-123c0 0-48.6 92 35.3 156.4 0 0-17 7.6-49.3-11.5 0 0-16 70.1 88 118.3h-50.6S296 639.6 390 646.7c0 0-44.4 59.6-173.1 50.6 0 0 116.1 80.7 265.8 43.2a397.2 397.2 0 0 0 100-42.3S740 613 752.7 392.7c0 0 33.1-19.4 54.3-56.6 0 0-59.6 13.8-64.1 12.4z"/></svg>
