<?xml version="1.0" standalone="no"?>
<!DOCTYPE svg PUBLIC "-//W3C//DTD SVG 20010904//EN"
 "http://www.w3.org/TR/2001/REC-SVG-20010904/DTD/svg10.dtd">
<svg version="1.0" xmlns="http://www.w3.org/2000/svg"
 width="512.000000pt" height="512.000000pt" viewBox="0 0 512.000000 512.000000"
 preserveAspectRatio="xMidYMid meet">
<metadata>
Created by potrace 1.14, written by Peter Selinger 2001-2017
</metadata>
<g transform="translate(0.000000,512.000000) scale(0.100000,-0.100000)"
fill="#000000" stroke="none">
<path d="M1932 4239 c-118 -20 -249 -79 -357 -160 -106 -80 -319 -425 -735
-1189 -165 -303 -269 -489 -321 -576 l-19 -32 47 -35 48 -35 72 69 c172 163
379 285 574 338 407 111 801 -40 1309 -501 58 -52 242 -230 410 -394 298 -292
474 -449 614 -549 193 -137 386 -231 573 -277 68 -17 120 -22 228 -22 77 -1
152 2 167 7 17 4 37 23 52 50 l25 42 -105 380 c-124 450 -312 1152 -380 1423
-58 230 -62 235 -191 253 -150 21 -295 94 -472 237 -52 43 -214 194 -360 337
-355 348 -496 463 -676 552 -160 80 -340 109 -503 82z m323 -139 c80 -26 165
-67 241 -117 42 -28 54 -42 63 -76 10 -39 7 -53 -37 -174 -57 -160 -65 -166
-158 -107 -86 55 -232 121 -320 146 -65 18 -106 22 -229 22 -134 -1 -160 -4
-238 -27 -48 -15 -89 -27 -92 -27 -14 0 1 29 59 116 42 64 82 110 117 136 65
49 177 103 256 123 82 21 247 13 338 -15z m739 -551 c322 -317 317 -308 315
-498 -1 -135 -8 -182 -25 -188 -6 -2 -71 53 -145 123 -171 161 -374 342 -467
419 -103 84 -105 95 -45 260 47 132 54 145 85 145 9 0 136 -117 282 -261z
m-1007 111 c97 -23 185 -61 306 -133 124 -73 125 -80 61 -268 -42 -124 -52
-144 -73 -149 -16 -4 -64 15 -160 62 -197 98 -255 112 -471 112 -162 0 -182
-2 -263 -27 -49 -15 -124 -44 -168 -64 -44 -20 -82 -34 -85 -31 -10 10 166
304 207 346 51 52 194 125 299 152 101 26 240 26 347 0z m632 -367 c104 -89
255 -225 438 -397 166 -155 184 -176 210 -235 28 -65 29 -68 23 -216 -4 -129
-7 -150 -22 -153 -10 -2 -69 46 -150 120 -276 256 -446 401 -610 521 -104 77
-107 91 -43 272 44 125 50 135 73 135 15 0 46 -18 81 -47z m-872 -124 c118
-16 203 -44 343 -115 124 -63 128 -66 138 -105 9 -35 5 -55 -36 -178 -43 -131
-48 -140 -76 -148 -25 -8 -41 -5 -86 17 -381 187 -757 177 -1122 -31 -49 -27
-90 -49 -93 -49 -14 0 3 38 78 175 79 144 85 152 164 215 140 113 331 200 480
219 97 12 122 12 210 0z m1915 -175 c68 -34 222 -84 262 -84 46 -1 56 -23 110
-233 50 -196 51 -206 35 -226 -20 -25 -50 -26 -139 -6 -129 30 -256 92 -389
190 -52 38 -68 57 -91 109 -28 61 -28 64 -23 206 7 182 9 185 101 123 37 -25
97 -60 134 -79z m-1082 -268 c113 -92 225 -190 443 -390 175 -161 201 -188
227 -243 l29 -63 -6 -195 c-6 -182 -7 -195 -26 -201 -16 -5 -61 35 -231 203
-345 342 -528 508 -662 601 -43 30 -57 47 -74 90 l-20 54 43 136 c59 188 54
188 277 8z m952 -230 c185 -120 364 -185 518 -186 23 0 45 -9 63 -26 25 -21
36 -52 81 -218 49 -180 52 -196 38 -219 -11 -18 -27 -26 -56 -30 -49 -7 -171
7 -246 29 -86 24 -266 118 -370 192 -79 57 -100 77 -122 122 -27 52 -28 59
-28 215 0 89 3 165 7 168 13 14 35 6 115 -47z m-47 -552 c230 -164 441 -244
649 -244 170 0 152 25 257 -356 69 -250 85 -322 77 -337 -10 -19 -18 -19 -122
-14 -179 10 -357 67 -540 174 -64 38 -256 176 -333 239 -7 6 -30 45 -49 85
l-36 74 4 195 c2 108 8 201 12 208 12 19 28 14 81 -24z"/>
</g>
</svg>
