<svg height="512pt" preserveAspectRatio="xMidYMid meet" viewBox="0 0 512 512" width="512pt" xmlns="http://www.w3.org/2000/svg"><path d="m1932 4239c-118-20-249-79-357-160-106-80-319-425-735-1189-165-303-269-489-321-576l-19-32 47-35 48-35 72 69c172 163 379 285 574 338 407 111 801-40 1309-501 58-52 242-230 410-394 298-292 474-449 614-549 193-137 386-231 573-277 68-17 120-22 228-22 77-1 152 2 167 7 17 4 37 23 52 50l25 42-105 380c-124 450-312 1152-380 1423-58 230-62 235-191 253-150 21-295 94-472 237-52 43-214 194-360 337-355 348-496 463-676 552-160 80-340 109-503 82zm323-139c80-26 165-67 241-117 42-28 54-42 63-76 10-39 7-53-37-174-57-160-65-166-158-107-86 55-232 121-320 146-65 18-106 22-229 22-134-1-160-4-238-27-48-15-89-27-92-27-14 0 1 29 59 116 42 64 82 110 117 136 65 49 177 103 256 123 82 21 247 13 338-15zm739-551c322-317 317-308 315-498-1-135-8-182-25-188-6-2-71 53-145 123-171 161-374 342-467 419-103 84-105 95-45 260 47 132 54 145 85 145 9 0 136-117 282-261zm-1007 111c97-23 185-61 306-133 124-73 125-80 61-268-42-124-52-144-73-149-16-4-64 15-160 62-197 98-255 112-471 112-162 0-182-2-263-27-49-15-124-44-168-64s-82-34-85-31c-10 10 166 304 207 346 51 52 194 125 299 152 101 26 240 26 347 0zm632-367c104-89 255-225 438-397 166-155 184-176 210-235 28-65 29-68 23-216-4-129-7-150-22-153-10-2-69 46-150 120-276 256-446 401-610 521-104 77-107 91-43 272 44 125 50 135 73 135 15 0 46-18 81-47zm-872-124c118-16 203-44 343-115 124-63 128-66 138-105 9-35 5-55-36-178-43-131-48-140-76-148-25-8-41-5-86 17-381 187-757 177-1122-31-49-27-90-49-93-49-14 0 3 38 78 175 79 144 85 152 164 215 140 113 331 200 480 219 97 12 122 12 210 0zm1915-175c68-34 222-84 262-84 46-1 56-23 110-233 50-196 51-206 35-226-20-25-50-26-139-6-129 30-256 92-389 190-52 38-68 57-91 109-28 61-28 64-23 206 7 182 9 185 101 123 37-25 97-60 134-79zm-1082-268c113-92 225-190 443-390 175-161 201-188 227-243l29-63-6-195c-6-182-7-195-26-201-16-5-61 35-231 203-345 342-528 508-662 601-43 30-57 47-74 90l-20 54 43 136c59 188 54 188 277 8zm952-230c185-120 364-185 518-186 23 0 45-9 63-26 25-21 36-52 81-218 49-180 52-196 38-219-11-18-27-26-56-30-49-7-171 7-246 29-86 24-266 118-370 192-79 57-100 77-122 122-27 52-28 59-28 215 0 89 3 165 7 168 13 14 35 6 115-47zm-47-552c230-164 441-244 649-244 170 0 152 25 257-356 69-250 85-322 77-337-10-19-18-19-122-14-179 10-357 67-540 174-64 38-256 176-333 239-7 6-30 45-49 85l-36 74 4 195c2 108 8 201 12 208 12 19 28 14 81-24z" transform="matrix(.1 0 0 -.1 0 512)"/></svg>