<svg xmlns="http://www.w3.org/2000/svg" fill="none" viewBox="0 0 64 52"><path fill="#000" d="m55.4 19.6-1-.8c-4.9 0-9-4-13-8L40 9.4a35.3 35.3 0 0 0-10.7-8.3 12 12 0 0 0-12.8 2.4h-.1v.2c-3.8 5.2-7 11-10 16.8C4.5 23.6 2.8 27 1 30v.1l1.4 1h.1c4-4 8.3-6.3 12.6-6.6 4.3-.3 8.8 1.5 13.8 5.4 3 2.3 5.8 5.1 8.6 7.9 4 4 8.1 8 12.7 10.8 3.3 2 6.6 3 9.8 3 1 0 1.8-.1 2.7-.3l.8-1.3c-2.7-9.7-5.5-20-8.1-30.4Zm-28 6.9Zm-16.7-9.6-.2-.2 2.6-4.6.9-1c3.6-2.5 7.7-3 11.7-1.2 1.3.6 2.6 1.3 3.9 2.2l.3 1-1.5 4.3-.8.2c-1.4-.8-2.8-1.5-4.2-2a15 15 0 0 0-12.7 1.3Zm19.7 2.5-.3-1.1 1.4-4.2.6-.2a104.3 104.3 0 0 1 7.7 6.9l2.7 2.5 1 2-.2 4.6-.5.2-2.5-2.4-2.7-2.4a78.8 78.8 0 0 0-7.2-5.8Zm15.5 13.3-.8-1.8.1-4.7.5-.2a15.7 15.7 0 0 0 9.6 3.7l1 .8 1.6 5.9-.5.7c-4 .5-7.8-1.5-11.5-4.5Zm9.5-5.5-.5.7c-3 0-5.9-1.7-8.7-3.8l-.8-1.9v-4.6l.6-.2c2.2 1.7 4.6 3 7.3 3.2l.5.4 1.6 6.2ZM38.7 10.7l1.4 1.4 2.7 2.6.9 1.9-.2 4.6-.4.2a220 220 0 0 1-3.7-3.5c-2-2-4.2-4-6.6-5.7l-.3-1.1 1.5-4 .7-.2 4 3.8Zm-21-6a10 10 0 0 1 10.9-1.9c1.2.5 2.3 1.2 3.4 2l.4 1.3-1.4 4-.8.2c-1.2-.8-2.5-1.5-3.7-2A13.4 13.4 0 0 0 15.9 8l-.2-.2 2-3Zm-2.8 18c-3 .2-6.1 1.3-9 3.2l-.3-.2L8 21.4 8 21c4.5-4.1 9.7-5.5 14.6-3.7 1.5.5 3 1.3 4.3 2.1l.3 1.2-1.3 4.2-1 .3a19 19 0 0 0-10-2.4Zm23.9 13.8a102.6 102.6 0 0 0-10.5-9.4l-.6-1.6 1.3-4 .7-.3.7.5c2.1 1.5 4.1 3.3 6 5L39 29l3.2 3 1 2-.2 5.8-.6.3-3.6-3.6Zm12.4 10.6c-1.9-1.1-3.6-2.5-5.3-4L44.8 41l.2-6 .4-.3c3.4 2.6 7 4.4 10.8 4.4h1.6l1 .5 2.6 9.7-.3.5C58 50 54.6 49 51 47Z"/></svg>
