<svg fill="none" viewBox="0 0 64 52" xmlns="http://www.w3.org/2000/svg"><path d="m55.4 19.6-1-.8c-4.9 0-9-4-13-8l-1.4-1.4a35.3 35.3 0 0 0 -10.7-8.3 12 12 0 0 0 -12.8 2.4h-.1v.2c-3.8 5.2-7 11-10 16.8-1.9 3.1-3.6 6.5-5.4 9.5v.1l1.4 1h.1c4-4 8.3-6.3 12.6-6.6s8.8 1.5 13.8 5.4c3 2.3 5.8 5.1 8.6 7.9 4 4 8.1 8 12.7 10.8 3.3 2 6.6 3 9.8 3 1 0 1.8-.1 2.7-.3l.8-1.3c-2.7-9.7-5.5-20-8.1-30.4zm-44.7-2.7-.2-.2 2.6-4.6.9-1c3.6-2.5 7.7-3 11.7-1.2 1.3.6 2.6 1.3 3.9 2.2l.3 1-1.5 4.3-.8.2c-1.4-.8-2.8-1.5-4.2-2a15 15 0 0 0 -12.7 1.3zm19.7 2.5-.3-1.1 1.4-4.2.6-.2a104.3 104.3 0 0 1 7.7 6.9l2.7 2.5 1 2-.2 4.6-.5.2-2.5-2.4-2.7-2.4a78.8 78.8 0 0 0 -7.2-5.8zm15.5 13.3-.8-1.8.1-4.7.5-.2a15.7 15.7 0 0 0 9.6 3.7l1 .8 1.6 5.9-.5.7c-4 .5-7.8-1.5-11.5-4.5zm9.5-5.5-.5.7c-3 0-5.9-1.7-8.7-3.8l-.8-1.9v-4.6l.6-.2c2.2 1.7 4.6 3 7.3 3.2l.5.4zm-16.7-16.5 1.4 1.4 2.7 2.6.9 1.9-.2 4.6-.4.2a220 220 0 0 1 -3.7-3.5c-2-2-4.2-4-6.6-5.7l-.3-1.1 1.5-4 .7-.2zm-21-6a10 10 0 0 1 10.9-1.9c1.2.5 2.3 1.2 3.4 2l.4 1.3-1.4 4-.8.2c-1.2-.8-2.5-1.5-3.7-2a13.4 13.4 0 0 0 -10.6-.3l-.2-.2 2-3zm-2.8 18c-3 .2-6.1 1.3-9 3.2l-.3-.2 2.4-4.3v-.4c4.5-4.1 9.7-5.5 14.6-3.7 1.5.5 3 1.3 4.3 2.1l.3 1.2-1.3 4.2-1 .3a19 19 0 0 0 -10-2.4zm23.9 13.8a102.6 102.6 0 0 0 -10.5-9.4l-.6-1.6 1.3-4 .7-.3.7.5c2.1 1.5 4.1 3.3 6 5l2.6 2.3 3.2 3 1 2-.2 5.8-.6.3zm12.4 10.6c-1.9-1.1-3.6-2.5-5.3-4l-1.1-2.1.2-6 .4-.3c3.4 2.6 7 4.4 10.8 4.4h1.6l1 .5 2.6 9.7-.3.5c-3.1.2-6.5-.8-10.1-2.8z" fill="#000"/></svg>