<svg width="63" height="51" viewBox="0 0 63 51" fill="none" xmlns="http://www.w3.org/2000/svg">
    <path d="M34.9439 12.9601L34.2684 12.4632C31.1724 12.4504 28.5354 9.8383 25.9871 7.31145L25.0843 6.41799C22.9604 4.31549 20.7628 2.14048 18.1799 1.10415C15.3156 -0.0451956 12.317 0.504954 9.95057 2.61386L9.90077 2.65864L9.8618 2.71408C7.49973 6.05976 5.43644 9.85963 3.44243 13.5337C2.35124 15.5445 1.22109 17.6257 0.0606214 19.5981L0 19.7026L0.913651 20.3914L1.00242 20.3018C3.5312 17.743 6.31545 16.2866 9.05857 16.0904C11.8298 15.8921 14.7462 17.0286 17.9721 19.5661C19.86 21.0524 21.6851 22.8692 23.4497 24.6284C26.0131 27.1829 28.6653 29.8249 31.6335 31.5841C33.7445 32.8358 35.8749 33.4777 37.8927 33.4777C38.4903 33.4777 39.0792 33.4201 39.6529 33.3049L40.1725 32.4541C38.4405 26.2383 36.6088 19.5789 34.9461 12.9601H34.9439ZM16.9653 17.3826V17.3869V17.3826ZM6.23318 11.2094L6.12709 11.0985C6.67701 10.107 7.2356 9.1197 7.80717 8.14521L8.35493 7.55028C10.6802 5.89983 13.3367 5.60343 15.8958 6.72505C16.7315 7.09182 17.5542 7.5652 18.3575 8.10682L18.5545 8.82117C18.2449 9.71036 17.9266 10.6273 17.6083 11.5676L17.1147 11.6999C16.2379 11.1753 15.3199 10.7062 14.3889 10.3778C11.6869 9.42036 8.82474 9.73382 6.23318 11.2115V11.2094ZM18.8836 12.8535L18.68 12.1157C18.9897 11.1987 19.2993 10.3032 19.6024 9.43315L20.0159 9.32227C21.3604 10.3885 22.6464 11.5762 23.848 12.6893C24.2031 13.0177 24.5625 13.3567 24.9241 13.7C25.4848 14.2288 26.0585 14.7726 26.6474 15.3014L27.2536 16.5659L27.1627 19.5406L26.8878 19.6664C26.3335 19.1695 25.7836 18.6599 25.2358 18.1545C24.6556 17.6172 24.1078 17.1097 23.5536 16.6171C22.3303 15.5274 21.001 14.3781 19.5872 13.3567C19.3599 13.1925 19.1239 13.0241 18.8857 12.8577L18.8836 12.8535ZM28.8428 21.3296L28.3318 20.2357L28.4249 17.1779L28.7324 17.035C30.5683 18.4104 32.5364 19.4233 34.6646 19.4233C34.7447 19.4233 34.827 19.4211 34.9071 19.419L35.5133 19.9222C35.8489 21.1931 36.1888 22.4576 36.5287 23.7136L36.217 24.2147C33.6405 24.5303 31.2027 23.1976 28.8428 21.3275V21.3296ZM34.9677 17.8496L34.6235 18.2526C32.6771 18.2398 30.8411 17.2141 29.0658 15.8132L28.5029 14.6361L28.5917 11.6935L28.8969 11.5506C30.3432 12.6381 31.8869 13.4377 33.6081 13.6062L33.9372 13.8493C34.2749 15.1841 34.6191 16.519 34.9656 17.8496H34.9677ZM24.2377 7.24748L25.1406 8.14094C25.7056 8.69962 26.2729 9.26256 26.8509 9.80418L27.4204 10.9962L27.3316 13.9538L27.0588 14.0796C26.6193 13.6744 26.1819 13.2629 25.7468 12.8513C25.3809 12.5059 25.0193 12.1647 24.6621 11.8342C23.3544 10.6251 21.9536 9.3308 20.4705 8.18146L20.2822 7.49697C20.6069 6.58219 20.9209 5.71005 21.2197 4.88269L21.6332 4.77181C22.5208 5.55012 23.3847 6.4052 24.2377 7.24748ZM10.8014 3.43908C12.8344 1.6543 15.2917 1.21077 17.7296 2.19165C18.4939 2.49871 19.2321 2.92732 19.9509 3.43269L20.1804 4.26431C19.886 5.07674 19.5764 5.93395 19.2581 6.83167L18.7688 6.96388C17.9916 6.45851 17.197 6.01071 16.3808 5.65248C14.1443 4.67159 11.78 4.6524 9.602 5.5352L9.49374 5.39446C9.92242 4.72916 10.3554 4.0724 10.8014 3.43695V3.43908ZM8.9698 14.9197C6.99961 15.0605 5.02292 15.7748 3.13283 17.0137L2.95962 16.89C3.47707 15.9518 3.99019 15.0114 4.49248 14.086C4.53361 14.0113 4.57475 13.9346 4.61589 13.8599L4.62238 13.8663C7.47159 11.1966 10.7971 10.3479 13.9884 11.4781C14.9215 11.8086 15.8525 12.3012 16.7445 12.8492L16.9437 13.5657C16.6514 14.4527 16.3591 15.3569 16.069 16.2674L15.452 16.4849C13.4601 15.4208 11.5484 14.892 9.67994 14.892C9.44395 14.892 9.20579 14.9005 8.9698 14.9176V14.9197ZM24.294 23.8031C22.5057 22.0205 20.6567 20.1781 18.7125 18.6492C18.3142 18.3358 17.9201 18.0436 17.5304 17.7707L17.1602 16.7578C17.4395 15.8729 17.7231 14.9965 18.0067 14.135L18.4765 14.0092C18.6129 14.1073 18.7493 14.2032 18.8836 14.2992C20.254 15.2886 21.5552 16.4145 22.7547 17.485C23.3003 17.9711 23.8437 18.4744 24.4196 19.0075C25.0973 19.6344 25.7901 20.2762 26.5002 20.8989L27.0848 22.1484L26.97 25.9483L26.6323 26.1018C25.842 25.347 25.0648 24.5729 24.294 23.8053V23.8031ZM32.2441 30.5798C31.0641 29.8804 29.9275 29.0232 28.8211 28.0828L28.1392 26.6221L28.2582 22.7327L28.5635 22.5941C30.7177 24.2211 33.0148 25.4365 35.47 25.4365C35.7969 25.4365 36.1282 25.4131 36.4616 25.3683L37.0808 25.7415C37.6545 27.844 38.2283 29.9166 38.7934 31.9445L38.5942 32.2708C36.5958 32.4456 34.42 31.8699 32.2441 30.5798Z" fill="black"/>
</svg>
