<svg xmlns="http://www.w3.org/2000/svg" fill="none" viewBox="0 0 125 34"><path fill="#000" d="M94.7 21h-.3l-3-8.8h-2L93.5 24h2l4.2-11.7h-2l-3 8.8V21Zm9-8.8h-2V24h2V12.2Zm.1-4.1h-2.2v2.2h2.2V8.1Zm19.2 4.1-3.2 8.4h-.4l-3.2-8.4H114l4.6 11.5-1.7 4.4h2l6-15.9h-2 .1Zm-13.3-.4V8h-2v3.7l-.4.4h-1.7V14h1.7l.5.4V22c0 1.1 1 2 2 2h2.7v-1.9h-2.3l-.5-.4v-7.3l.5-.4h2.7v-1.8h-2.7l-.5-.4Zm-48.8 3.7v1.9H66l.5.4a4.8 4.8 0 0 1-5 4.4c-3.3 0-5.6-2.3-5.6-6.4 0-4.1 2.3-6.4 5.6-6.4 2.4 0 4.1 1.2 4.7 3.2h2.2c-.7-3-3.3-5-6.9-5-4 0-7.8 2.7-7.8 8.2 0 5.5 3.7 8.3 7.8 8.3 2.2 0 4.3-1 5-2.7v2.5h2v-7.7l-.7-.7h-7 .1ZM83.7 12a4.5 4.5 0 0 0-4.6 3.6v.2H81v-.1c.4-1.3 1.4-2 2.8-2 1.6 0 2.7 1 2.8 2.4 0 1.1-1.2 1.2-2.9 1.2-2.4 0-4.7.9-4.7 3.4 0 2.2 1.9 3.4 4 3.4 1.5 0 2.5-.7 3.2-1.4h.4v1.2h1.9v-7.5c0-2.7-2-4.3-4.7-4.3l-.1-.1Zm-.5 10.3c-1.1 0-2.3-.4-2.3-1.6 0-1.3 1-1.8 2.6-1.8 1.2 0 2.3 0 2.9-.3v.7c0 1.7-1.2 3-3.2 3Zm-9.5-8.5h-.3v-1.5h-1.9v11.5h1.9v-4.5c0-1.5 0-2.3.5-3.1a4.1 4.1 0 0 1 4-2.2h.1v-1.8c-2.2-.4-3.7.7-4.3 1.6ZM35 12.7l-.7-.5c-3.1 0-5.8-2.6-8.3-5.2l-1-.9c-1.9-2.2-4.2-4-6.7-5.3A7.7 7.7 0 0 0 10 2.3h-.1v.1a108 108 0 0 0-6.5 10.9l-3.3 6-.1.1 1 .7c2.5-2.6 5.3-4 8-4.3 2.8-.2 5.7 1 9 3.5 1.9 1.5 3.7 3.3 5.4 5 2.6 2.6 5.3 5.3 8.2 7 2.1 1.3 4.3 2 6.3 2a9 9 0 0 0 1.8-.2l.5-.9-5.3-19.5h.1ZM6.2 11l1.6-3 .6-.6c2.3-1.7 5-2 7.5-.9l2.5 1.4.2.7-1 2.8-.5.1c-.9-.5-1.8-1-2.7-1.3-2.7-1-5.6-.6-8.2.8ZM19 12.6l-.2-.8.9-2.6.4-.2a67 67 0 0 1 5 4.4l1.6 1.6.7 1.3-.1 3-.3.1-1.7-1.5-1.6-1.6c-1.5-1.3-3-2.6-4.7-3.7Zm10 8.5-.6-1.1.1-3 .3-.2a10 10 0 0 0 6 2.4h.2l.6.5 1 3.8-.3.5c-2.6.3-5-1-7.4-3l.1.1Zm6-3.5-.3.4c-2 0-3.8-1-5.5-2.5l-.6-1.1v-3l.4-.1c1.4 1 3 1.9 4.7 2l.3.3 1 4ZM24.3 7l1 .9L27 9.5l.5 1.2v3l-.3.1-2.4-2.2a64.3 64.3 0 0 0-4.2-3.7l-.2-.7 1-2.6.3-.1c1 .8 1.8 1.6 2.6 2.5ZM10.8 3.2c2-1.8 4.5-2.3 7-1.3L20 3.1l.2.9-1 2.5-.4.2c-.8-.5-1.6-1-2.4-1.3-2.3-1-4.6-1-6.8-.1L9.5 5l1.3-2v.2ZM9 14.6c-2 .2-4 .9-5.9 2.1H3l1.5-2.9.1-.2c2.9-2.7 6.2-3.5 9.4-2.4 1 .3 1.9.8 2.7 1.4l.2.7-.8 2.7-.6.2c-2-1.1-4.2-1.7-6.5-1.6Zm15.3 9a66 66 0 0 0-6.8-6.1l-.3-1 .8-2.6.5-.2.4.3c1.4 1 2.7 2 3.9 3.2l1.6 1.5 2.1 2 .6 1.2-.1 3.8-.4.1-2.3-2.3v.1Zm8 6.7c-1.2-.7-2.4-1.5-3.5-2.5l-.7-1.4.2-4h.3c2.1 1.6 4.4 2.8 6.9 2.8h1l.6.3 1.7 6.2-.2.3c-2 .2-4.2-.4-6.4-1.7h.1Z"/></svg>
