<svg xmlns="http://www.w3.org/2000/svg" fill="none" viewBox="0 0 126 33"><defs><clipPath id="a"><path fill="#fff" d="M53.7 6.3h71.4v20.5H53.7V6.3z"/></clipPath></defs><g fill="#000" clip-path="url(#a)"><path stroke="null" d="M94.8 21.2h-.4l-3-8.8h-2L93.6 24h2l4.4-11.6h-2l-3 8.8h-.2zm-.2.6zm9.2-9.4h-2V24h2V12.4zm.1-4h-2.2v2h2.2v-2zm19.1 4-3.1 8.4h-.5l-3.2-8.4h-2l4.5 11.5-1.7 4.3h2l6-15.8h-2zm-3.3 9zm-9.9-9.5V8.4h-2V12l-.4.5h-1.7v1.7h1.7l.5.5v7.6c0 1 .9 2 2 2h2.7v-2h-2.3l-.5-.4v-7.3l.5-.5h2.6v-1.7h-2.6l-.5-.5zm-48.9 3.8v1.8h5.2l.4.5c-.2 2.6-2.1 4.3-5 4.3-3.2 0-5.6-2.2-5.6-6.3s2.4-6.4 5.6-6.4c2.4 0 4.2 1.2 4.8 3.2h2.1c-.6-3.1-3.3-5.1-6.9-5.1-4 0-7.8 2.8-7.8 8.3 0 5.5 3.8 8.2 7.8 8.2 2.3 0 4.4-1 5.1-2.6V24h2v-7.6l-.7-.7h-7zm22.9-3.5c-2.3 0-4.2 1.4-4.6 3.6H81c.4-1.2 1.4-2 2.8-2 1.6 0 2.7 1 2.7 2.5 0 1-1 1-2.8 1-2.5 0-4.7 1-4.7 3.6 0 2 1.8 3.3 4 3.3a4 4 0 0 0 3.1-1.3h.5v1h1.9v-7.3c0-2.7-2-4.4-4.7-4.4zm-.5 10.3c-1.1 0-2.4-.5-2.4-1.7s1-1.7 2.7-1.7c1.2 0 2.3 0 2.8-.4h.1v.8c0 1.7-1.2 3-3.2 3zM73.8 14h-.3v-1.6h-1.9v11.5h1.8v-4.5c0-1.6.1-2.3.6-3.1a5 5 0 0 1 1.6-1.7c.7-.4 1.5-.5 2.4-.5v-1.7c-2.2-.4-3.7.7-4.2 1.6z"/></g><path fill="#000" d="m35 12.5-.7-.5c-3.1 0-5.7-2.7-8.3-5.2l-.9-.9a22.7 22.7 0 0 0-7-5.3A7.7 7.7 0 0 0 10 2l-.1.1C7.5 5.6 5.4 9.4 3.4 13L.1 19.1l-.1.1 1 .7a13 13 0 0 1 8-4.3c2.8-.2 5.8 1 9 3.5 1.9 1.5 3.7 3.3 5.5 5 2.5 2.6 5.2 5.2 8.2 7 2 1.3 4.2 1.9 6.2 1.9a9 9 0 0 0 1.8-.2l.5-.8c-1.7-6.2-3.6-13-5.2-19.5zm-18 4.4zM6.2 10.7v-.1l1.6-3 .6-.6c2.3-1.6 5-2 7.5-.8l2.5 1.4.2.7-1 2.8-.5.1c-.8-.5-1.8-1-2.7-1.3-2.7-1-5.6-.7-8.2.8zM19 12.4l-.2-.8 1-2.7h.3a67 67 0 0 1 5 4.3l1.7 1.6.6 1.3-.1 3H27l-1.6-1.4-1.7-1.6a50.6 50.6 0 0 0-4.7-3.7zm10 8.4-.5-1v-3.1l.4-.2a10.1 10.1 0 0 0 6.1 2.4l.6.5 1 3.8-.3.5c-2.5.3-5-1-7.3-2.9zm6.1-3.4-.3.4c-2 0-3.8-1-5.6-2.5l-.6-1.2.1-3h.3c1.5 1 3 1.8 4.7 2l.4.2 1 4v.1zM24.3 6.7l.9 1 1.7 1.6.5 1.2v3H27a144.4 144.4 0 0 1-2.4-2.2 64.4 64.4 0 0 0-4.2-3.6l-.2-.7 1-2.6.4-.1 2.6 2.4h.1zM10.8 3c2-1.8 4.5-2.2 7-1.2L20 2.9l.2.9-1 2.5-.4.2c-.8-.6-1.6-1-2.4-1.4a8 8 0 0 0-6.8 0l-.1-.2 1.3-2V3zM9 14.4c-2 .2-4 .9-5.9 2.1l-.1-.1 1.5-2.8.1-.2c2.9-2.7 6.2-3.6 9.4-2.4 1 .3 1.9.8 2.8 1.3l.2.8-1 2.7-.5.2A12.2 12.2 0 0 0 9 14.4zm15.3 9a66 66 0 0 0-6.8-6.1l-.3-1 .8-2.7h.5l.4.2a49 49 0 0 1 3.9 3.2l1.6 1.5 2.1 2 .6 1.2-.1 3.8-.3.1-2.4-2.3v.1zm8 6.7c-1.2-.7-2.3-1.6-3.5-2.5l-.6-1.5v-3.9l.4-.1c2.1 1.6 4.4 2.8 6.9 2.8h1l.6.4 1.7 6.2-.2.3c-2 .2-4.2-.4-6.3-1.7z"/></svg>
