<svg xmlns="http://www.w3.org/2000/svg" xml:space="preserve" viewBox="0 0 689.2 188.3"><path d="M686.6 63h-11.2l-18 46.8h-2.2l-18-46.8h-11.8l25.4 64-3.7 8.2c-1.8 4.7-5.5 5.7-12 5.7h-1.6v10.4h1.6c7.1 0 17-.4 22.8-14l4.1-10.4L687.2 63h-.6zM532.9 63.2l-17.1 49.2h-2l-17-49.2h-11.2l23.6 64.7h11.2l23.8-64.7h-11.3zM423.4 63l-.5-.1c-12-2-20.2 4.2-23.5 9h-1.6v-8.7h-10.6v64.7h10.6v-25.4c-.1-8.6.4-12.6 3-17.3a22.9 22.9 0 0 1 22.8-12l-.2-10.2zM602.3 75.3l2.6-2.6h13.5V63h-13.5l-2.6-2.6v-20h-10.9v20l-2.7 2.7h-13.5v9.7h13.5l2.7 2.7v30.7c0 22.7 15.4 22.8 23.8 22.8h1.6v-10.4h-1.5c-8.9 0-13-1.8-13-12.5V75.3zM565.4 63h-10.9v64.9h10.9V63zM565.9 40.3h-12.1v12.1h12.1V40.3zM453.7 62.2c-12.9 0-23 7.7-25.5 19.7l-.1.9h10.3l.1-.5c1.9-6.9 7.5-10.9 15.2-10.9 8.9 0 14.9 5.2 15.4 13.3-.1 6.4-6.4 6.5-15.9 6.5-13.8 0-26.1 5.1-26.1 19.1 0 12 10.2 18.7 21.8 18.7a23 23 0 0 0 18.6-8.4h1.6v7.3h10.6V86.4c0-15-10.7-24.2-26-24.2zm-2.6 56.9c-6.4 0-13.2-2.4-13.2-9.1s5.9-9.6 14.6-9.6c6.7 0 12.5.6 15.8-1.2l.9.4v2.7c-.1 9.6-7 16.8-18.1 16.8zM368.6 81.6h-38.7v10.2h28.7l2.5 2.5c-1.4 14.5-11.8 24.2-27.7 24.2-18.1 0-31.3-12.6-31.3-35.4s13.2-35.6 31.5-35.6c13.3 0 22.9 6.7 26.2 18H372C368.2 48 353.5 37 333.5 37 311 37 290 52.3 290 83s20.9 46 43.3 46c11.4 0 21.8-4.7 26.9-12.2h1.5V128h10.7V85.2l-3.8-3.6zM180.7 69.5l-3.9-3a46 46 0 0 1-27.3-9.3v-.1h-.1a131.8 131.8 0 0 1-21-21.2C116.7 22.4 104.7 8.4 85.7 4.1a43 43 0 0 0-37.8 9.4l-1.8 2.3L1 107.1l5.8 4.1a47.7 47.7 0 0 1 37.8-18.8c25.5 0 42.4 18 62 38.9 23.7 25.3 50.5 54 99.3 54h.4l2.8-3.6-28.4-112.2zm-152.6-3zm1.5-1-.7-.7 6.7-13.6 1.7-2.3c9-9 21.2-13.1 33.8-11.3 9 1.3 16.6 5 23.6 10.2l1.4 5.2-4.4 16.7-2.3.8c-9-6.5-19-11.1-31.1-11.9a48.5 48.5 0 0 0-28.7 6.9zM99 78.3l-1.5-5.6 4.4-16.6 2-.5c4.7 4.5 9.2 9.6 13.8 14.7 6.5 7.3 13.1 14.7 20.6 21.1l3.2 6.8-.9 19.9-1.7.8c-8-6.9-15.1-14.7-22.2-22.3A309.8 309.8 0 0 0 99 78.3zm81.3 31.6 5.1 4.3 6.1 24.1-2.2 2.8a80 80 0 0 1-39.8-14l-2.9-6.3.9-20.2 1.9-1a67.5 67.5 0 0 0 30.9 10.3zm-39.9 10.3zm-.3 7.8zm5.2 25.8.8-19.3 2-.9a86.4 86.4 0 0 0 41.7 13.8l5.1 4.2 5.9 23.5-2.8 3.6a98 98 0 0 1-49.2-17l-3.5-7.9zm36.8-53.1-2.2 2.8A62.6 62.6 0 0 1 151 93.1l-2.9-6.1.8-19.7 2.4-1.3a50.7 50.7 0 0 0 19.2 6.4l5.3 4.1 6.3 24.2zM123.5 40a198 198 0 0 0 15.2 16.4l4.1 8.7L142 84l-1.6.9c-6.5-5.8-12.3-12.3-18.1-18.7-5.1-5.7-10.2-11.4-15.7-16.5L105 44l4.2-16 2.7-.7c4 3.8 7.7 8.2 11.6 12.7zM50.9 20.3l2.4-3.1c4.9-3.8 16-10.4 31-6.9a48.1 48.1 0 0 1 17.6 8.1l1.7 6.2L99.3 41l-2.4.6c-7.3-5.1-15.4-9-24.9-10.3a46 46 0 0 0-27.7 4.6l-.8-.7 7.4-14.9zM15 95.1l-.8-.5 6-12.1 1.1-1.7A42.9 42.9 0 0 1 57.8 65c11.2.8 20.6 5.2 29.2 11.7l1.4 5.2-4.1 15.5-3.8 1a61.1 61.1 0 0 0-36.1-12.3c-10.7 0-20.6 3-29.4 9zm96.2 31.9a337.2 337.2 0 0 0-18.7-19l-2.2-8.1L94.2 85l2-.6c5.4 5 10.5 10.7 15.8 16.4 7.6 8.3 15.6 16.9 24.8 24.6l3.1 6.8-.8 19.4-2.1 1a311.7 311.7 0 0 1-25.8-25.6z"/></svg>
