<svg xmlns="http://www.w3.org/2000/svg" fill="none" viewBox="0 0 41 34"><path fill="#F7F7F2" d="m35 12.7-.7-.5c-3.1 0-5.8-2.6-8.3-5.2l-1-.9A22.7 22.7 0 0 0 18.3.8 7.7 7.7 0 0 0 10 2.3h-.1v.1C7.5 5.8 5.4 9.6 3.4 13.3l-3.3 6-.1.1 1 .7c2.5-2.6 5.3-4 8-4.3 2.8-.2 5.7 1 9 3.5 1.9 1.5 3.7 3.3 5.4 5 2.6 2.6 5.3 5.3 8.2 7 2.1 1.3 4.3 2 6.3 2a9 9 0 0 0 1.8-.2l.5-.9a794 794 0 0 1-5.3-19.5ZM17 17ZM6.2 11l1.6-3 .6-.6c2.3-1.7 5-2 7.5-.9l2.5 1.4.2.7-1 2.8-.5.1c-.9-.5-1.8-1-2.7-1.3-2.7-1-5.6-.6-8.2.8ZM19 12.6l-.2-.8.9-2.6.4-.2a67 67 0 0 1 5 4.4l1.6 1.6.7 1.3-.1 3-.3.1-1.7-1.5-1.6-1.6a50.6 50.6 0 0 0-4.7-3.7Zm10 8.5-.6-1.1.1-3 .3-.2a10 10 0 0 0 6 2.4h.2l.6.5 1 3.8-.3.5c-2.6.3-5-1-7.4-3Zm6-3.5-.3.4c-2 0-3.8-1-5.5-2.5l-.6-1.1v-3l.4-.1c1.4 1 3 1.9 4.7 2l.3.3 1 4ZM24.3 7l1 .9 1.7 1.6.5 1.2v3l-.3.1a140.4 140.4 0 0 1-2.4-2.2 64.3 64.3 0 0 0-4.2-3.7l-.2-.7 1-2.6.3-.1c1 .8 1.8 1.6 2.6 2.5ZM10.8 3.2c2-1.8 4.5-2.3 7-1.3L20 3.1l.2.9-1 2.5-.4.2c-.8-.5-1.6-1-2.4-1.3-2.3-1-4.6-1-6.8-.1L9.5 5l1.3-2ZM9 14.6c-2 .2-4 .9-5.9 2.1H3l1.5-2.9.1-.2c2.9-2.7 6.2-3.5 9.4-2.4 1 .3 1.9.8 2.7 1.4l.2.7-.8 2.7-.6.2A12.2 12.2 0 0 0 9 14.6Zm15.3 9a66 66 0 0 0-6.8-6.1l-.3-1 .8-2.6.5-.2.4.3a49 49 0 0 1 3.9 3.2l1.6 1.5 2.1 2 .6 1.2-.1 3.8-.4.1-2.3-2.3Zm8 6.7c-1.2-.7-2.4-1.5-3.5-2.5l-.7-1.4.2-4h.3c2.1 1.6 4.4 2.8 6.9 2.8h1l.6.3 1.7 6.2-.2.3c-2 .2-4.2-.4-6.4-1.7Z"/></svg>
